<?xml version="1.0" encoding="UTF-8" standalone="no"?>
<!-- Created with Inkscape (http://www.inkscape.org/) -->

<svg
   width="13.366585mm"
   height="5.5379343mm"
   viewBox="0 0 13.366585 5.5379343"
   version="1.1"
   id="svg1"
   xmlns="http://www.w3.org/2000/svg"
   xmlns:svg="http://www.w3.org/2000/svg">
  <defs
     id="defs1" />
  <g
     id="layer1"
     transform="translate(-52.652082,-3.1749996)">
    <path
       style="fill:#4d4d4d;fill-opacity:1;stroke-width:0.231807;stroke-dasharray:none;paint-order:stroke fill markers"
       id="rect5-3-3"
       width="15.408836"
       height="5.1510077"
       x="4.2732549"
       y="1.6773003"
       d="M 4.3261715,1.6773003 H 19.629175 a 0.05291667,0.05291667 45 0 1 0.05292,0.052917 l 0,5.0451743 a 0.05291667,0.05291667 135 0 1 -0.05292,0.052917 H 4.3261715 A 0.05291667,0.05291667 45 0 1 4.2732549,6.7753913 V 1.730217 a 0.05291667,0.05291667 135 0 1 0.052917,-0.052917 z"
       transform="matrix(0.86746224,0,0,1.0751168,48.945196,1.371706)" />
    <text
       xml:space="preserve"
       style="font-style:normal;font-variant:normal;font-weight:bold;font-stretch:normal;font-size:3.21524px;font-family:'Hurmit Nerd Font';-inkscape-font-specification:'Hurmit Nerd Font, Bold';font-variant-ligatures:normal;font-variant-caps:normal;font-variant-numeric:normal;font-variant-east-asian:normal;fill:#ffffff;fill-opacity:1;stroke-width:0.172516;stroke-dasharray:none;paint-order:stroke fill markers"
       x="55.524868"
       y="7.1039219"
       id="text5-9-2"><tspan
         id="tspan5-72-0"
         style="font-style:normal;font-variant:normal;font-weight:bold;font-stretch:normal;font-size:3.21524px;font-family:'Hurmit Nerd Font';-inkscape-font-specification:'Hurmit Nerd Font, Bold';font-variant-ligatures:normal;font-variant-caps:normal;font-variant-numeric:normal;font-variant-east-asian:normal;fill:#ffffff;stroke-width:0.172517"
         x="55.524868"
         y="7.1039219"><tspan
   style="fill:#f7a41d;fill-opacity:1"
   id="tspan6-50-0">Z</tspan>Body</tspan></text>
    <path
       id="rect7-1-0"
       style="fill:#f7a41d;fill-opacity:1;stroke-width:0.264999;stroke-dasharray:none;paint-order:stroke fill markers"
       d="m 2.38125,14.540405 0,4.109929 a 0.05291667,0.05291667 45 0 0 0.052917,0.05292 h 4.1099299 a 0.05291667,0.05291667 135 0 0 0.052917,-0.05292 v -0.610918 c 0,-0.02923 -0.019323,-0.0392 -0.043721,-0.02311 -0.2625623,0.173112 -0.5678234,0.27046 -0.8821304,0.281312 -0.029204,0.001 -0.076598,0.0011 -0.1058088,2.1e-4 -0.9023562,-0.02735 -1.6288857,-0.753857 -1.6562643,-1.656205 -8.873e-4,-0.02924 -8.871e-4,-0.07667 -1.9e-6,-0.105879 0.027346,-0.902356 0.753856,-1.628886 1.6562046,-1.656265 0.029244,-8.87e-4 0.076669,-8.62e-4 0.1058776,7.1e-5 0.3140002,0.01003 0.6192037,0.106391 0.882033,0.278489 0.024447,0.01601 0.043811,0.006 0.043811,-0.02325 l 0,-0.594381 a 0.05291667,0.05291667 45 0 0 -0.052917,-0.05292 l -4.1099299,0 a 0.05291667,0.05291667 135 0 0 -0.052917,0.05292 z m 1.4762944,1.020172 c 0.053146,0.01687 0.095112,0.05885 0.1119682,0.112001 0.00879,0.02772 0.00879,0.07639 -1.54e-5,0.104136 -0.016871,0.05315 -0.058848,0.09511 -0.1120003,0.111967 -0.027722,0.0088 -0.076391,0.0088 -0.1041363,-1.5e-5 -0.053146,-0.01687 -0.095111,-0.05885 -0.1119679,-0.112 -0.00879,-0.02772 -0.00879,-0.07639 1.48e-5,-0.104136 0.016871,-0.05315 0.058847,-0.09511 0.1120006,-0.111968 0.027722,-0.0088 0.076391,-0.0088 0.1041363,1.5e-5 z m -0.5776989,0.506569 c 0.1242235,0.02184 0.2222147,0.119833 0.2440592,0.244056 0.00506,0.02875 0.00506,0.07656 9e-7,0.105309 -0.021842,0.124224 -0.1198322,0.222215 -0.2440551,0.24406 -0.02875,0.0051 -0.076563,0.005 -0.1053016,-9e-5 -0.124001,-0.02202 -0.2217374,-0.119927 -0.2435501,-0.243965 -0.00506,-0.02875 -0.00506,-0.07656 -9e-7,-0.105309 0.021811,-0.124039 0.1195457,-0.221943 0.2435459,-0.243969 0.028741,-0.0051 0.076555,-0.0051 0.1053017,-9.2e-5 z m 0.00381,0.958055 c 0.2666186,0.025 0.4788226,0.237205 0.5038315,0.503823 0.00273,0.02909 0.00273,0.0766 9e-7,0.105689 -0.025004,0.266619 -0.2372056,0.478822 -0.5038229,0.503831 -0.029092,0.0027 -0.076602,0.0027 -0.1056893,1e-6 -0.2666186,-0.025 -0.4788226,-0.237205 -0.5038315,-0.503823 -0.00273,-0.02909 -0.00273,-0.0766 -9e-7,-0.105689 0.025005,-0.266619 0.2372056,-0.478822 0.5038229,-0.503831 0.029092,-0.0027 0.076602,-0.0027 0.1056893,-1e-6 z"
       transform="translate(50.93565,-10.699153)" />
  </g>
</svg>
